<?xml version="1.0" encoding="UTF-8" standalone="no"?>
<!-- Generator: Adobe Illustrator 17.0.1, SVG Export Plug-In . SVG Version: 6.00 Build 0)  -->

<svg
   xmlns:dc="http://purl.org/dc/elements/1.1/"
   xmlns:cc="http://creativecommons.org/ns#"
   xmlns:rdf="http://www.w3.org/1999/02/22-rdf-syntax-ns#"
   xmlns:svg="http://www.w3.org/2000/svg"
   xmlns="http://www.w3.org/2000/svg"
   xmlns:xlink="http://www.w3.org/1999/xlink"
   xmlns:sodipodi="http://sodipodi.sourceforge.net/DTD/sodipodi-0.dtd"
   xmlns:inkscape="http://www.inkscape.org/namespaces/inkscape"
   version="1.1"
   x="0px"
   y="0px"
   width="86px"
   height="86px"
   viewBox="0 0 86 86"
   enable-background="new 0 0 86 86"
   xml:space="preserve"
   id="svg2"
   inkscape:version="0.91 r13725"
   sodipodi:docname="vocabulary4-1.svg"><title
     id="title3391">Vocabulary Icon</title><metadata
     id="metadata52"><rdf:RDF><cc:Work
         rdf:about=""><dc:format>image/svg+xml</dc:format><dc:type
           rdf:resource="http://purl.org/dc/dcmitype/StillImage" /><dc:title>Vocabulary Icon</dc:title><dc:creator><cc:Agent><dc:title>sfbg</dc:title></cc:Agent></dc:creator><dc:rights><cc:Agent><dc:title>PD</dc:title></cc:Agent></dc:rights><cc:license
           rdf:resource="http://creativecommons.org/publicdomain/zero/1.0/" /></cc:Work><cc:License
         rdf:about="http://creativecommons.org/publicdomain/zero/1.0/"><cc:permits
           rdf:resource="http://creativecommons.org/ns#Reproduction" /><cc:permits
           rdf:resource="http://creativecommons.org/ns#Distribution" /><cc:permits
           rdf:resource="http://creativecommons.org/ns#DerivativeWorks" /></cc:License></rdf:RDF></metadata><defs
     id="defs50"><linearGradient
       id="linearGradient4424"
       inkscape:collect="always"><stop
         id="stop4426"
         offset="0"
         style="stop-color:#ffcc00;stop-opacity:1" /><stop
         id="stop4428"
         offset="1"
         style="stop-color:#c87137;stop-opacity:1" /></linearGradient><linearGradient
       inkscape:collect="always"
       id="linearGradient4208"><stop
         style="stop-color:#552200;stop-opacity:1"
         offset="0"
         id="stop4210" /><stop
         style="stop-color:#ffcc00;stop-opacity:1"
         offset="1"
         id="stop4212" /></linearGradient><linearGradient
       inkscape:collect="always"
       xlink:href="#linearGradient4208"
       id="linearGradient4206"
       x1="79.076271"
       y1="0.36440679"
       x2="78.711861"
       y2="87.093224"
       gradientUnits="userSpaceOnUse" /><linearGradient
       inkscape:collect="always"
       xlink:href="#linearGradient4424"
       id="linearGradient4340"
       gradientUnits="userSpaceOnUse"
       x1="79.076271"
       y1="0.36440679"
       x2="78.711861"
       y2="87.093224"
       gradientTransform="matrix(0.95844725,0,0,0.9917039,3.4926216,0.00288788)" /></defs><sodipodi:namedview
     pagecolor="#ffffff"
     bordercolor="#666666"
     borderopacity="1"
     objecttolerance="10"
     gridtolerance="10"
     guidetolerance="10"
     inkscape:pageopacity="0"
     inkscape:pageshadow="2"
     inkscape:window-width="1366"
     inkscape:window-height="715"
     id="namedview48"
     showgrid="false"
     showguides="true"
     inkscape:guide-bbox="true"
     inkscape:object-nodes="false"
     inkscape:snap-intersection-paths="false"
     inkscape:snap-smooth-nodes="false"
     inkscape:object-paths="false"
     inkscape:snap-nodes="false"
     inkscape:snap-others="false"
     inkscape:zoom="4"
     inkscape:cx="92.178802"
     inkscape:cy="42.627641"
     inkscape:window-x="0"
     inkscape:window-y="0"
     inkscape:window-maximized="1"
     inkscape:current-layer="Layer_1"><sodipodi:guide
       position="0,0"
       orientation="0,86"
       id="guide4289" /><sodipodi:guide
       position="86,0"
       orientation="-86,0"
       id="guide4291" /><sodipodi:guide
       position="86,86"
       orientation="0,-86"
       id="guide4293" /><sodipodi:guide
       position="0,86"
       orientation="86,0"
       id="guide4295" /><sodipodi:guide
       position="14.211864,91.101695"
       orientation="1,0"
       id="guide4297" /><sodipodi:guide
       position="83.813559,46.097458"
       orientation="1,0"
       id="guide4299" /></sodipodi:namedview><g
     id="Layer_2"
     display="none" /><g
     id="Layer_1"
     transform="matrix(-1,0,0,1,86,0)"><g
       id="g6"><path
         d="m 41.423,85.606 c -0.195,-0.009 -0.407,-0.02 -0.635,-0.033 0.208,0.015 0.422,0.023 0.635,0.033 z"
         id="path8"
         inkscape:connector-curvature="0"
         style="fill:#ffc8a0" /><path
         d="m 41.812,85.623 c 0.38,0.01 0.757,0.029 1.139,0.029 -0.526,0 -1.028,-0.021 -1.528,-0.045 0.141,0.006 0.267,0.011 0.389,0.016 z"
         id="path10"
         inkscape:connector-curvature="0"
         style="fill:#ffc8a0" /><path
         d="m 0.378,45.164 c -0.013,-0.228 -0.024,-0.44 -0.033,-0.635 0.01,0.212 0.019,0.426 0.033,0.635 z"
         id="path12"
         inkscape:connector-curvature="0"
         style="fill:#ffc8a0" /><path
         d="m 0.329,44.139 c 0.005,0.123 0.01,0.249 0.016,0.389 C 0.321,44.028 0.3,43.526 0.3,43 c 0,0.382 0.019,0.759 0.029,1.139 z"
         id="path14"
         inkscape:connector-curvature="0"
         style="fill:#ffc8a0" /></g><linearGradient
       id="SVGID_1_"
       gradientUnits="userSpaceOnUse"
       x1="12.7851"
       y1="73.151901"
       x2="85.179199"
       y2="0.75779998"
       xlink:href="#SVGID_2_"><stop
         offset="0"
         style="stop-color:#f3e598;stop-opacity:1"
         id="stop17" /><stop
         offset="0.9951"
         style="stop-color:#E6D695"
         id="stop19" /></linearGradient><path
       d="m 85.603,1.77 c 0,-0.785 -0.637,-1.422 -1.422,-1.422 l -82.459,0 C 0.937,0.349 0.3,0.985 0.3,1.77 L 0.3,43 c 0,23.556 19.096,42.651 42.651,42.651 l 41.23,0 c 0.785,0 1.422,-0.696 1.422,-1.481 l 0,-82.4 z"
       id="path21"
       style="fill:#ffeeaa;fill-opacity:1"
       inkscape:connector-curvature="0" /><g
       id="g23"
       style="fill:url(#linearGradient4206);fill-opacity:1"
       transform="translate(0.0563663,-0.04026164)"><linearGradient
         id="SVGID_2_"
         gradientUnits="userSpaceOnUse"
         x1="18.245199"
         y1="32.648602"
         x2="30.123703"
         y2="-23.323122"
         style="fill:url(#linearGradient4206);fill-opacity:1"><stop
           offset="0"
           style="stop-color:#00A89A;fill-opacity:1.0;fill:url(#linearGradient4206)"
           id="stop26" /><stop
           offset="1"
           style="stop-color:#00CFBD;fill-opacity:1.0;fill:url(#linearGradient4206)"
           id="stop28" /></linearGradient><path
         d="m 83.078125,0.35351562 -9.082031,0.0605469 C 73.991494,28.815104 73.986994,57.272512 73.982424,85.673554 l 10.344164,-0.0067 c 1.075812,-0.242042 1.21739,-1.086112 1.250976,-1.209461 L 85.558597,43.77344 85.539067,1.8808614 C 85.567567,1.079225 84.875541,0.31345628 84.05191,0.37171838 83.727712,0.33917168 83.403281,0.34941108 83.078125,0.35351562 Z"
         id="path30"
         style="fill:url(#linearGradient4340);fill-opacity:1"
         inkscape:connector-curvature="0"
         sodipodi:nodetypes="sccccccss" /></g><rect
       style="fill:#ff8080;fill-opacity:1"
       id="rect4243"
       width="1.8224893"
       height="74.853943"
       x="-38.262711"
       y="5.6694617"
       transform="scale(-1,1)" /><rect
       style="fill:#6c5353;fill-opacity:0.37804877"
       id="rect4245"
       width="69.237289"
       height="1.8220339"
       x="-71.788139"
       y="5.6483049"
       transform="scale(-1,1)" /><rect
       style="fill:#6c5353;fill-opacity:0.37804877"
       id="rect4245-6"
       width="69.237289"
       height="1.8220339"
       x="-71.782448"
       y="33.029747"
       transform="scale(-1,1)" /><rect
       style="fill:#6c5353;fill-opacity:0.37804877"
       id="rect4245-7"
       width="69.237289"
       height="1.8220339"
       x="-71.783424"
       y="23.911293"
       transform="scale(-1,1)" /><rect
       style="fill:#6c5353;fill-opacity:0.37804877"
       id="rect4245-5"
       width="69.237289"
       height="1.8220339"
       x="-71.801476"
       y="14.778681"
       transform="scale(-1,1)" /><rect
       style="fill:#6c5353;fill-opacity:0.37804877"
       id="rect4245-3"
       width="69.237289"
       height="1.8220339"
       x="-71.79071"
       y="42.17075"
       transform="scale(-1,1)" /><path
       style="fill:#6c5353;fill-opacity:0.37804877"
       d="m 71.792708,69.522189 -62.2495532,0.02421 1.5367692,1.797876 60.712784,0 z"
       id="rect4245-6-5"
       inkscape:connector-curvature="0"
       sodipodi:nodetypes="ccccc" /><path
       style="fill:#6c5353;fill-opacity:0.37804877"
       d="m 71.785566,60.427736 -67.7815037,-0.0055 0.8620401,1.826059 66.9194636,0.0015 z"
       id="rect4245-7-6"
       inkscape:connector-curvature="0"
       sodipodi:nodetypes="ccccc" /><rect
       style="fill:#6c5353;fill-opacity:0.37804877"
       id="rect4245-5-2"
       width="69.237289"
       height="1.8220339"
       x="-71.788818"
       y="51.317192"
       transform="scale(-1,1)" /><path
       transform="scale(-1,1)"
       style="fill:#6c5353;fill-opacity:0.37804877"
       d="m -71.781509,78.692665 52.174405,0.0081 c 0,0 -0.965649,0.617879 -1.457061,0.912814 -0.521677,0.313099 -1.582693,0.909219 -1.582693,0.909219 l -49.134651,-0.0081 z"
       id="rect4245-5-2-9"
       inkscape:connector-curvature="0"
       sodipodi:nodetypes="ccaccc" /></g></svg>
